<svg width="114" height="113" viewBox="0 0 114 113" fill="none" xmlns="http://www.w3.org/2000/svg">
<g id="051-tooth-3.svg">
<path id="Vector" d="M33.8999 43.032H79.8501C80.2006 43.032 80.5365 42.8928 80.7843 42.6449C81.0322 42.3972 81.1713 42.0612 81.1713 41.7107V34.8916C81.1713 34.5411 81.0322 34.2051 80.7843 33.9572C80.5365 33.7095 80.2006 33.5703 79.8501 33.5703C79.4996 33.5703 79.1636 33.7095 78.9157 33.9572C78.668 34.2051 78.5288 34.5411 78.5288 34.8916V40.3894H35.2214V34.8916C35.2214 34.5411 35.082 34.2051 34.8343 33.9572C34.5866 33.7095 34.2504 33.5703 33.8999 33.5703C33.5496 33.5703 33.2134 33.7095 32.9657 33.9572C32.718 34.2051 32.5787 34.5411 32.5787 34.8916V41.7107C32.5787 42.0612 32.718 42.3972 32.9657 42.6449C33.2134 42.8928 33.5496 43.032 33.8999 43.032Z" fill="#4670CE"/>
<path id="Vector_2" d="M7.96842 91.8969C9.64872 90.8338 11.619 90.3218 13.6043 90.4323C15.5897 90.5428 17.4909 91.2703 19.0429 92.5135C21.5533 94.5133 24.7496 95.4455 27.9414 95.109C31.1334 94.7723 34.0649 93.194 36.1031 90.7146L38.5361 87.7372C38.6482 87.6032 38.7327 87.4483 38.7846 87.2812C38.8365 87.1144 38.8547 86.9386 38.8382 86.7647C38.8218 86.5906 38.7709 86.4216 38.6886 86.2673C38.6063 86.113 38.4942 85.9767 38.3589 85.8661C38.2234 85.7554 38.0675 85.6728 37.8998 85.6228C37.7323 85.5729 37.5564 85.5568 37.3826 85.5753C37.2088 85.5938 37.0403 85.6468 36.8872 85.7309C36.7338 85.815 36.5989 85.9287 36.4898 86.0655L34.0568 89.0425C32.4604 90.9841 30.1645 92.2202 27.6647 92.4838C25.1649 92.7475 22.6617 92.0177 20.6953 90.4519C18.714 88.8644 16.2864 87.9353 13.7514 87.7941C11.2166 87.6528 8.7008 88.3064 6.55531 89.664L4.32476 91.0759C4.03256 91.2652 3.82679 91.5619 3.75217 91.9019C3.67754 92.2419 3.74007 92.5975 3.92617 92.8917C4.11229 93.1858 4.40694 93.3945 4.74612 93.4726C5.08531 93.5509 5.44161 93.492 5.73765 93.309L7.96842 91.8969Z" fill="#34C5A1"/>
<path id="Vector_3" d="M106.17 87.6249L99.3273 86.2094C96.294 85.5775 93.1339 86.1297 90.495 87.7529C89.054 88.6345 87.405 89.118 85.7163 89.1544C84.0275 89.1908 82.3592 88.7788 80.8816 87.9601L76.8957 85.7469C76.744 85.6627 76.5773 85.6092 76.4048 85.5894C76.2324 85.5696 76.0578 85.5841 75.8909 85.6318C75.7242 85.6795 75.5683 85.7595 75.4325 85.8676C75.2966 85.9755 75.1833 86.109 75.0991 86.2608C75.0149 86.4125 74.9614 86.5794 74.9416 86.7517C74.9218 86.9241 74.9363 87.0987 74.9839 87.2655C75.0316 87.4324 75.1118 87.5882 75.2197 87.7241C75.3277 87.8599 75.4612 87.9731 75.6129 88.0574L79.5988 90.2703C81.4857 91.3161 83.6164 91.8427 85.7733 91.7963C87.9301 91.7498 90.0361 91.132 91.8763 90.0062C93.9425 88.7355 96.4164 88.3031 98.7911 88.7976L105.634 90.2131C105.976 90.2809 106.331 90.211 106.621 90.0184C106.912 89.8258 107.114 89.526 107.185 89.1847C107.256 88.8432 107.188 88.4879 106.998 88.1957C106.808 87.9037 106.51 87.6982 106.17 87.6249Z" fill="#34C5A1"/>
<path id="Vector_4" d="M31.6227 74.6972C35.0448 76.5093 36.9125 77.6392 37.6236 78.7879C38.2347 79.775 38.1542 81.0805 37.9137 83.9392C37.8736 84.4153 37.8309 84.9257 37.7887 85.4745C37.4881 89.4045 37.0312 102.767 43.7636 109.723C44.1726 110.107 44.6658 110.389 45.2036 110.547C45.5889 110.68 45.9935 110.748 46.4009 110.748C46.9245 110.754 47.443 110.646 47.9196 110.429C48.3962 110.212 48.819 109.893 49.1578 109.493C49.4966 109.094 49.7431 108.625 49.8797 108.12C50.0163 107.614 50.0395 107.085 49.9476 106.569C49.6922 103.431 49.7022 100.276 49.9773 97.139C50.3919 92.4157 51.6365 85.8725 55.2107 81.522C55.4257 81.2684 55.6935 81.0652 55.9956 80.9262C56.2976 80.7872 56.6265 80.7161 56.9588 80.7177C57.2912 80.7194 57.6193 80.7938 57.9199 80.9357C58.2206 81.0776 58.4865 81.2836 58.699 81.539C62.2086 85.9181 63.4268 92.4565 63.8301 97.1707C64.0978 100.298 64.1052 103.442 63.8521 106.57C63.7631 107.321 63.9064 108.081 64.2629 108.748C64.6192 109.415 65.1715 109.957 65.8452 110.301C66.519 110.644 67.2818 110.773 68.031 110.67C68.7801 110.567 69.4798 110.236 70.0355 109.723C76.7678 102.767 76.3117 89.4043 76.0103 85.4745C75.9687 84.9285 75.9261 84.4205 75.8861 83.9461C75.6459 81.0861 75.5653 79.78 76.1764 78.7931C76.8864 77.6461 78.7545 76.5138 82.1774 74.6971C85.0074 73.1947 87.0662 70.1455 87.9742 66.1102C88.8224 62.2878 88.5284 58.3003 87.1291 54.6433C84.1444 47.1063 77.0598 44.0511 68.1763 46.4735C64.8509 47.3798 63.1112 48.4585 61.2698 49.6005C59.8693 50.5115 58.3923 51.2993 56.8554 51.9546C56.8397 51.961 56.8241 51.9678 56.809 51.9745C56.3981 51.7478 55.91 51.4659 55.3751 51.1569C52.3272 49.3968 47.7212 46.7368 43.7775 46.214C35.1682 45.071 28.5862 48.9055 26.1692 56.4683C23.8568 63.7038 26.3032 71.8812 31.6227 74.6972ZM28.6875 57.273C29.6459 54.2748 33.001 47.4513 43.4313 48.8336C46.8552 49.2877 51.1877 51.7901 54.055 53.4456C54.9283 53.9499 55.6826 54.3855 56.2472 54.6665C58.9712 56.0213 63.0642 57.7306 67.1328 56.9367C67.4767 56.8695 67.78 56.6685 67.9757 56.3778C68.1714 56.087 68.2438 55.7304 68.1766 55.3865C68.1094 55.0425 67.9082 54.7393 67.6175 54.5436C67.3269 54.3479 66.9703 54.2756 66.6263 54.3428C64.7155 54.7153 62.5547 54.4232 59.9512 53.4226C61.0044 52.8753 61.8671 52.3402 62.6633 51.8465C64.4096 50.7636 65.9179 49.8284 68.8723 49.0231C76.4378 46.961 82.197 49.3637 84.6729 55.616C85.8806 58.7784 86.1323 62.2258 85.397 65.53C84.6716 68.7535 83.0469 71.2438 80.9394 72.3625C76.9337 74.4888 74.9715 75.721 73.9304 77.4021C72.834 79.1729 72.9921 81.0529 73.2537 84.1674C73.2929 84.6353 73.3352 85.1363 73.3763 85.676C73.9508 93.19 72.8812 102.958 68.1592 107.863C68.026 107.941 67.8842 108.003 67.7367 108.048C67.5798 108.115 67.4078 108.137 67.2392 108.112C67.0707 108.088 66.912 108.018 66.7804 107.909C66.649 107.801 66.5496 107.659 66.4934 107.498C66.437 107.337 66.4257 107.164 66.4607 106.998C66.4676 106.961 66.4731 106.925 66.4768 106.889C66.5517 106.171 68.2281 89.2035 60.7613 79.8864C60.3028 79.324 59.7255 78.8699 59.0709 78.5568C58.4163 78.2437 57.7005 78.0792 56.9749 78.0752C56.2491 78.0712 55.5317 78.2277 54.8735 78.5336C54.2156 78.8395 53.6333 79.2873 53.1686 79.8446C45.5531 89.1157 47.2479 106.168 47.3236 106.89C47.3277 106.926 47.3328 106.962 47.3397 106.998C47.3749 107.164 47.3637 107.337 47.3074 107.498C47.251 107.659 47.1518 107.801 47.0203 107.909C46.8887 108.018 46.7301 108.088 46.5616 108.113C46.393 108.137 46.2209 108.115 46.0641 108.049C45.9164 108.003 45.7744 107.941 45.6409 107.863C40.9191 102.958 39.8493 93.19 40.4241 85.676C40.4655 85.1343 40.5077 84.6307 40.5474 84.1605C40.8093 81.0471 40.9673 79.1681 39.8709 77.3971C38.8286 75.7129 36.8656 74.4825 32.8597 72.3618C28.6888 70.154 26.778 63.2441 28.6875 57.273Z" fill="#4670CE"/>
<path id="Vector_5" d="M29.6124 21.2199L32.6073 35.1687C32.6708 35.4642 32.8336 35.729 33.0686 35.9191C33.3038 36.109 33.5968 36.2127 33.8991 36.2127H79.8501C80.1522 36.2127 80.4454 36.109 80.6806 35.9191C80.9156 35.729 81.0784 35.4642 81.1419 35.1687L84.1368 21.2199C84.1852 21.2199 84.2331 21.2234 84.2818 21.2234C85.738 21.2255 87.1527 20.7389 88.2994 19.8414C89.4461 18.9441 90.2583 17.6876 90.6059 16.2736C90.9537 14.8596 90.8166 13.3698 90.217 12.0429C89.6171 10.716 88.5893 9.62887 87.2982 8.95559C86.0072 8.28233 84.5274 8.06192 83.096 8.32969C81.6647 8.59747 80.3647 9.33793 79.4044 10.4324C78.4439 11.5269 77.8787 12.9121 77.7992 14.3661C77.7197 15.82 78.1305 17.2586 78.966 18.4512L69.7609 25.5049L61.0089 13.8975C62.0356 13.0506 62.7773 11.9086 63.1338 10.6263C63.49 9.3439 63.4437 7.98301 63.001 6.72781C62.5584 5.47263 61.7408 4.38376 60.6587 3.6086C59.5768 2.83346 58.2829 2.40946 56.952 2.39399C55.6212 2.37853 54.3177 2.77237 53.218 3.52219C52.1184 4.27199 51.2757 5.34158 50.8041 6.58615C50.3323 7.83072 50.2543 9.19016 50.5808 10.4805C50.9073 11.7708 51.6223 12.9296 52.629 13.8001L43.2323 25.4992L34.7058 18.5606C35.5657 17.3827 36.0039 15.9494 35.9496 14.4919C35.8951 13.0345 35.3515 11.6379 34.4062 10.5273C33.4607 9.41677 32.1689 8.65703 30.7387 8.37066C29.3088 8.08431 27.8238 8.288 26.5238 8.94889C25.2237 9.6098 24.1841 10.6894 23.5727 12.0135C22.9614 13.3376 22.8139 14.829 23.1541 16.2473C23.4941 17.6655 24.302 18.9278 25.4475 19.8306C26.5929 20.7334 28.0091 21.2241 29.4676 21.2234C29.5162 21.2234 29.5642 21.2207 29.6124 21.2199ZM84.2826 10.8805C84.8203 10.88 85.3523 10.9921 85.844 11.2096C86.3358 11.4272 86.7766 11.7454 87.1379 12.1437C87.4994 12.542 87.7732 13.0115 87.942 13.5221C88.1108 14.0327 88.1707 14.573 88.118 15.1082C88.0652 15.6434 87.9009 16.1616 87.6356 16.6293C87.3705 17.0973 87.0102 17.5043 86.578 17.8243C86.1459 18.1444 85.6514 18.3704 85.1266 18.4878C84.6018 18.6052 84.0582 18.6112 83.5309 18.5057C83.4809 18.4879 83.4299 18.4733 83.3782 18.4617C83.355 18.4569 83.3321 18.4541 83.3092 18.4504C82.4035 18.2143 81.6151 17.6562 81.0913 16.8806C80.5675 16.105 80.3444 15.1651 80.4638 14.2368C80.5831 13.3086 81.0367 12.4556 81.7396 11.8378C82.4425 11.2199 83.3466 10.8798 84.2826 10.8805ZM56.875 5.04484C57.7348 5.04439 58.57 5.33189 59.2474 5.86146C59.9247 6.39104 60.4052 7.13222 60.6122 7.96673C60.8192 8.80124 60.7407 9.68103 60.3893 10.4657C60.038 11.2505 59.4339 11.8949 58.6735 12.2963C58.5682 12.3316 58.4678 12.3801 58.3747 12.4405C57.9094 12.6377 57.4099 12.7411 56.9046 12.7446C56.3994 12.7481 55.8983 12.6517 55.4304 12.461C55.4241 12.4557 55.4188 12.45 55.4123 12.4449C55.2619 12.3242 55.0866 12.2382 54.899 12.1928C54.1761 11.761 53.6148 11.1038 53.3015 10.3222C52.988 9.54062 52.9399 8.67776 53.1642 7.86612C53.3886 7.05447 53.8731 6.33889 54.5435 5.82923C55.2139 5.31957 56.0329 5.044 56.875 5.04484ZM43.4296 28.6849C43.4761 28.6849 43.5227 28.6823 43.5691 28.6775C43.7422 28.6591 43.9102 28.6066 44.0631 28.5232C44.2159 28.4397 44.3509 28.3268 44.4599 28.1909L54.9726 15.1023C56.1647 15.468 57.437 15.4818 58.6368 15.1421L68.4517 28.159C68.5567 28.2983 68.6883 28.4153 68.8387 28.5034C68.9892 28.5916 69.1556 28.6491 69.3284 28.6727C69.3875 28.6809 69.4471 28.6849 69.5067 28.6849C69.7973 28.6849 70.0798 28.5891 70.3103 28.4124L80.9202 20.2837C81.1279 20.4092 81.3422 20.5229 81.5624 20.6244L78.7825 33.5705H34.9677L32.1876 20.6239C32.3686 20.54 32.5448 20.4482 32.7161 20.3485L42.5959 28.3876C42.8313 28.5796 43.1258 28.6846 43.4296 28.6849ZM25.6175 14.7308C25.6167 14.0988 25.7715 13.4764 26.0682 12.9184C26.3649 12.3604 26.7944 11.8841 27.3187 11.5314C27.8432 11.1787 28.4462 10.9605 29.0749 10.896C29.7035 10.8316 30.3385 10.9229 30.9235 11.1619C31.5085 11.4009 32.0257 11.7802 32.4295 12.2664C32.8332 12.7526 33.111 13.3307 33.2384 13.9496C33.3658 14.5686 33.3389 15.2094 33.1601 15.8156C32.9813 16.4217 32.656 16.9745 32.2129 17.425C32.0101 17.5088 31.8313 17.6418 31.6929 17.8122C31.663 17.8493 31.6349 17.888 31.6092 17.9281C31.2516 18.1669 30.8565 18.3439 30.4403 18.4515C30.4182 18.4551 30.3949 18.4577 30.372 18.4625C30.3201 18.4741 30.2691 18.4888 30.2191 18.5066C29.6607 18.6184 29.0844 18.6047 28.5319 18.4668C27.9793 18.3288 27.4643 18.0698 27.024 17.7087C26.5836 17.3474 26.2289 16.893 25.9855 16.3781C25.7423 15.8632 25.617 15.3003 25.6175 14.7308Z" fill="#34C5A1"/>
</g>
</svg>
